<svg width="632" height="157" viewBox="0 0 632 157" fill="none" xmlns="http://www.w3.org/2000/svg">
<path d="M0 12H477.128L449.518 128.758H0V12Z" fill="#00347D"/>
<path d="M487.481 12.5668H617.764V129.325H460.303L487.481 12.5668Z" fill="#0069FC"/>
<path d="M144.04 62.5682L145.403 54.4545H183.631L182.267 62.5682H168.017L161.653 101H151.926L158.29 62.5682H144.04ZM182.199 101L189.926 54.4545H221.29L219.926 62.5682H198.403L196.585 73.6591H216.494L215.131 81.7727H195.222L193.403 92.8864H215.017L213.653 101H182.199ZM229.409 101H218.864L242.659 54.4545H255.341L263.659 101H253.114L247.455 65.0909H247.091L229.409 101ZM231.818 82.7045H256.727L255.409 90.3864H230.5L231.818 82.7045ZM276.989 54.4545H289.125L296.784 85.7273H297.33L315.307 54.4545H327.443L319.716 101H310.17L315.216 70.7045H314.807L297.807 100.773H291.284L284.284 70.5909H283.898L278.807 101H269.261L276.989 54.4545Z" fill="white"/>
<path d="M536.269 101.636C532.784 101.636 529.784 101.053 527.269 99.8864C524.754 98.7197 522.89 97.0985 521.678 95.0227C520.481 92.947 520.095 90.553 520.519 87.8409H530.292C530.14 88.9621 530.314 89.9545 530.814 90.8182C531.329 91.6818 532.095 92.3485 533.11 92.8182C534.14 93.2879 535.352 93.5227 536.746 93.5227C538.307 93.5227 539.746 93.2273 541.064 92.6364C542.382 92.0455 543.473 91.2424 544.337 90.2273C545.216 89.197 545.754 88.0379 545.951 86.75C546.148 85.5227 545.981 84.4773 545.451 83.6136C544.92 82.7348 544.072 82.0606 542.905 81.5909C541.739 81.1212 540.292 80.8864 538.564 80.8864H534.042L535.246 73.6591H539.337C540.852 73.6591 542.239 73.3788 543.496 72.8182C544.769 72.2576 545.822 71.4773 546.655 70.4773C547.489 69.4773 548.011 68.3182 548.223 67C548.405 65.9242 548.322 64.9848 547.973 64.1818C547.64 63.3636 547.049 62.7348 546.201 62.2955C545.367 61.8409 544.284 61.6136 542.951 61.6136C541.602 61.6136 540.292 61.8561 539.019 62.3409C537.746 62.8106 536.67 63.4848 535.792 64.3636C534.913 65.2424 534.375 66.2727 534.178 67.4545H524.792C525.261 64.7727 526.382 62.4091 528.155 60.3636C529.943 58.3182 532.163 56.7197 534.814 55.5682C537.481 54.4015 540.36 53.8182 543.451 53.8182C546.739 53.8182 549.511 54.4545 551.769 55.7273C554.026 56.9848 555.663 58.6515 556.678 60.7273C557.708 62.7879 558.026 65.0303 557.632 67.4545C557.193 70.1212 556.026 72.2348 554.132 73.7955C552.254 75.3409 549.913 76.3409 547.11 76.7955V77.1364C550.246 77.5606 552.61 78.8106 554.201 80.8864C555.807 82.9621 556.367 85.4848 555.882 88.4545C555.473 91.0303 554.36 93.3106 552.542 95.2955C550.723 97.2803 548.413 98.8333 545.61 99.9545C542.807 101.076 539.693 101.636 536.269 101.636Z" fill="white"/>
</svg>
